# xmcd CD database file
#
# Track frame offsets:
#	150
#	11632
#	22787
#	34441
#	48026
#	57479
#	69030
#	81635
#	91982
#	105411
#	116167
#	128280
#	139217
#	158158
#	168545
#	180756
#	190563
#	202059
#	211682
#	222737
#	231543
#	243544
#	256483
#	269628
#	280419
#
# Disc length: 3872 seconds
#
# Revision: 2
# Processed by: cddbd v1.5.2PL0 Copyright (c) Steve Scherf et al.
# Submitted via: CDex 1.70beta2
#
DISCID=6a0f1e19
DTITLE=Various Artist - The Encyclopedia Of Doo Wop Volume 4 - Disc 3
DYEAR=2004
DGENRE=Doo Wop
TTITLE0=Crazy Love - The Royaltones
TTITLE1=Tell Me Why - The Sunbeams
TTITLE2=Babby Doll - The Excels
TTITLE3=You've Sinned - The Solitaires
TTITLE4=Mixed-Up, Shook-Up Girl - Patty and The Emblems
TTITLE5=I'm Yours - The Flamingos
TTITLE6=All My Love Belongs To You - The Hearts
TTITLE7=Bingo - The Turbans
TTITLE8=Darling Listen To The Words Of This Song - Ruth McFadden and The Supremes
TTITLE9=The Closer You Are - The Magnificent Four
TTITLE10=Zu Zu - The Bonnevilles
TTITLE11=I Remember - The Suburbands
TTITLE12=I Believe - The Earls
TTITLE13=Way Up In The Sky - Jackie and The Starlites
TTITLE14=Three Precious Words - The Edsels
TTITLE15=Nothing Like A Little Love - The Solitaires
TTITLE16=My Faith - The Fi-Tones
TTITLE17=I'm Spinning - The Dell-Vikings
TTITLE18=Love Me Right - The Skyhawks
TTITLE19=I Got Fired - The Mistakes
TTITLE20=Tonight Kathleen - The Valentines
TTITLE21=Now You're Gone - The Laddins
TTITLE22=Baby - The Bop Chords
TTITLE23=Never The Less - Lee Andrews and The Hearts
TTITLE24=Do You Hear Wedding Bells - The Jive Five
EXTD=YEAR: 2004
EXTT0=
EXTT1=
EXTT2=
EXTT3=
EXTT4=
EXTT5=
EXTT6=
EXTT7=
EXTT8=
EXTT9=
EXTT10=
EXTT11=
EXTT12=
EXTT13=
EXTT14=
EXTT15=
EXTT16=
EXTT17=
EXTT18=
EXTT19=
EXTT20=
EXTT21=
EXTT22=
EXTT23=
EXTT24=
PLAYORDER=
